<svg width="22" height="23" viewBox="0 0 22 23" fill="none" xmlns="http://www.w3.org/2000/svg">
<g clip-path="url(#clip0_173_359)">
<path d="M18.3566 0H3.6431C2.66753 0 1.73201 0.388051 1.04217 1.0789C0.352327 1.76975 -0.0351562 2.70665 -0.0351562 3.68364V18.4187C-0.0351562 19.3957 0.352327 20.3326 1.04217 21.0234C1.73201 21.7143 2.66753 22.1023 3.6431 22.1023H18.3566C19.3322 22.1023 20.2677 21.7143 20.9575 21.0234C21.6474 20.3326 22.0349 19.3957 22.0349 18.4187V3.68364C22.0349 2.70665 21.6474 1.76975 20.9575 1.0789C20.2677 0.388051 19.3322 0 18.3566 0V0ZM20.1958 18.4186H20.1956C20.1956 18.907 20.002 19.3755 19.657 19.7209C19.3121 20.0664 18.8443 20.2603 18.3566 20.2603H3.6431C3.1554 20.2603 2.68756 20.0664 2.34272 19.7209C1.99772 19.3755 1.80405 18.907 1.80405 18.4186V3.68356C1.80405 3.19514 1.99772 2.72662 2.34272 2.38127C2.68756 2.03577 3.1554 1.84182 3.6431 1.84182H18.3566C18.8443 1.84182 19.3121 2.03577 19.657 2.38127C20.002 2.72662 20.1956 3.19514 20.1956 3.68356L20.1958 18.4186Z" fill="white"/>
<path d="M10.9999 5.52539C9.53661 5.52539 8.13325 6.10755 7.09841 7.14374C6.06373 8.1801 5.48242 9.58552 5.48242 11.0509C5.48242 12.5163 6.06373 13.9218 7.09841 14.9581C8.13325 15.9943 9.53661 16.5765 10.9999 16.5765C12.4632 16.5765 13.8665 15.9943 14.9014 14.9581C15.936 13.9218 16.5173 12.5163 16.5173 11.0509C16.5173 9.58552 15.936 8.1801 14.9014 7.14374C13.8665 6.10755 12.4632 5.52539 10.9999 5.52539ZM10.9999 14.7345C10.0243 14.7345 9.08879 14.3464 8.39895 13.6556C7.70911 12.9647 7.32163 12.0278 7.32163 11.0509C7.32163 10.0739 7.70911 9.13696 8.39895 8.44611C9.08879 7.75526 10.0243 7.36721 10.9999 7.36721C11.9754 7.36721 12.911 7.75526 13.6008 8.44611C14.2907 9.13696 14.6781 10.0739 14.6781 11.0509C14.6781 12.0278 14.2907 12.9647 13.6008 13.6556C12.911 14.3464 11.9754 14.7345 10.9999 14.7345Z" fill="white"/>
<path d="M18.3564 5.06498C18.3564 5.82798 17.7388 6.44637 16.977 6.44637C16.2151 6.44637 15.5977 5.82798 15.5977 5.06498C15.5977 4.30214 16.2151 3.68359 16.977 3.68359C17.7388 3.68359 18.3564 4.30214 18.3564 5.06498Z" fill="white"/>
</g>
<defs>
<clipPath id="clip0_173_359">
<rect width="22" height="22.0322" fill="white"/>
</clipPath>
</defs>
</svg>
