<svg width="16" height="21" viewBox="0 0 16 21" fill="none" xmlns="http://www.w3.org/2000/svg">
<path d="M15.0415 2.87832L15.0327 2.88126L15.0242 2.88501C14.2372 3.23178 13.426 2.98133 12.9549 2.35227L12.9549 2.35225L12.9528 2.34948C12.7354 2.06956 12.6098 1.69223 12.6098 1.35051C12.6098 1.27464 12.5969 1.20247 12.5664 1.13356C12.5362 1.06551 12.4931 1.01071 12.4463 0.963836C12.3995 0.916973 12.3448 0.873848 12.2768 0.84357C12.2079 0.812902 12.1357 0.8 12.0598 0.8H8.4898C8.33926 0.8 8.19831 0.851134 8.09453 0.955073C7.99077 1.05899 7.9398 1.2 7.9398 1.35051V13.7935V13.8521C7.87636 14.3806 7.46997 14.7502 6.9498 14.7502C6.39553 14.7502 5.9248 14.2792 5.9248 13.7234C5.9248 13.1984 6.29917 12.7897 6.83192 12.7304L6.84056 12.7295L6.84908 12.7278C7.09613 12.6783 7.3248 12.472 7.3248 12.1812V8.11521C7.3248 7.96469 7.27384 7.82368 7.17008 7.71977C7.06629 7.61583 6.92534 7.56469 6.7748 7.56469H6.7048V7.5645L6.6961 7.56488C3.36916 7.70974 0.8 10.3916 0.8 13.7234C0.8 17.1284 3.54927 19.8821 6.95 19.8821C10.1165 19.8821 12.7823 17.4456 13.0603 14.3159C13.0806 14.2755 13.089 14.2368 13.0931 14.2121C13.1003 14.1692 13.1002 14.129 13.1002 14.1113L13.1002 14.1092V7.59092C13.8155 7.73131 14.5657 7.77709 15.3481 7.6465L15.3481 7.64661L15.3545 7.64534C15.63 7.59014 15.7952 7.36185 15.7952 7.09872V3.38329C15.7952 3.19024 15.6717 3.03028 15.5313 2.93654L15.4347 2.87205L15.4205 2.87915C15.2886 2.82848 15.1578 2.83948 15.0415 2.87832ZM12.0735 3.01133C12.6659 3.814 13.6777 4.26315 14.6944 4.11602L14.6948 6.63275C13.985 6.67557 13.3335 6.60054 12.6831 6.38344C12.5132 6.32673 12.3504 6.38171 12.2562 6.41354C12.2511 6.41526 12.2462 6.41692 12.2415 6.41849L12.216 6.42698L12.1938 6.44187C12.0178 6.55932 11.9648 6.73747 11.9648 6.88861V13.9563L11.935 13.9861L11.9302 14.0613C11.7619 16.6906 9.53875 18.7813 6.9146 18.7813C4.12033 18.7813 1.8646 16.5227 1.8646 13.7236C1.8646 11.1658 3.70851 9.05824 6.1894 8.72454V11.758C5.38004 12.0663 4.7894 12.8371 4.7894 13.7234C4.7894 14.8851 5.75367 15.8512 6.9144 15.8512C7.94241 15.8512 8.82018 15.1013 8.99455 14.1148C9.01848 14.071 9.02788 14.0283 9.03231 14.0016C9.03945 13.9587 9.03942 13.9185 9.0394 13.9008L9.0394 13.8987V1.90083H11.5779C11.6674 2.31835 11.8413 2.67926 12.0705 3.00715L12.0704 3.00719L12.0735 3.01133Z" fill="white" stroke="white" stroke-width="0.4"/>
</svg>
