<svg width="26" height="27" viewBox="0 0 26 27" fill="none" xmlns="http://www.w3.org/2000/svg">
<path d="M21.2075 7.8125H4.795C4.59508 7.81344 4.40233 7.88715 4.2528 8.01986C4.10327 8.15257 4.00718 8.33519 3.9825 8.53359L2.54032 21.5336C2.52749 21.6469 2.53864 21.7616 2.57305 21.8702C2.60745 21.9789 2.66434 22.0791 2.74001 22.1644C2.81568 22.2496 2.90845 22.318 3.01228 22.3651C3.1161 22.4121 3.22867 22.4368 3.34266 22.4375H22.6598C22.7738 22.4368 22.8864 22.4121 22.9902 22.3651C23.0941 22.318 23.1868 22.2496 23.2625 22.1644C23.3382 22.0791 23.3951 21.9789 23.4295 21.8702C23.4639 21.7616 23.475 21.6469 23.4622 21.5336L22.02 8.53359C21.9953 8.33519 21.8992 8.15257 21.7497 8.01986C21.6002 7.88715 21.4074 7.81344 21.2075 7.8125V7.8125Z" stroke="white" stroke-width="1.4" stroke-linecap="round" stroke-linejoin="round"/>
<path d="M8.9375 11.0625V7.8125C8.9375 6.73506 9.36551 5.70175 10.1274 4.93988C10.8892 4.17801 11.9226 3.75 13 3.75C14.0774 3.75 15.1108 4.17801 15.8726 4.93988C16.6345 5.70175 17.0625 6.73506 17.0625 7.8125V11.0625" stroke="white" stroke-width="1.4" stroke-linecap="round" stroke-linejoin="round"/>
</svg>
