<svg width="88" height="39" viewBox="0 0 88 39" fill="none" xmlns="http://www.w3.org/2000/svg">
<path fill-rule="evenodd" clip-rule="evenodd" d="M81.7051 30.38C81.7051 30.38 80.9646 29.5415 80.3474 28.8005C83.0423 28.079 84.0709 26.48 84.0709 26.48C83.2274 27.0065 82.4251 27.377 81.7051 27.6305C80.6766 28.04 79.6891 28.313 78.7223 28.469C76.7474 28.82 74.9371 28.7225 73.3943 28.4495C72.2217 28.235 71.2137 27.923 70.3703 27.611C69.8971 27.4355 69.3829 27.221 68.8686 26.948C68.8069 26.909 68.7451 26.8895 68.6834 26.8505C68.6423 26.831 68.6217 26.8115 68.6011 26.792C68.2309 26.597 68.0251 26.4605 68.0251 26.4605C68.0251 26.4605 69.0126 28.0205 71.6251 28.7615C71.008 29.5025 70.2469 30.38 70.2469 30.38C65.7006 30.2435 63.9726 27.416 63.9726 27.416C63.9726 21.137 66.9349 16.0475 66.9349 16.0475C69.8971 13.9415 72.7154 14 72.7154 14L72.9211 14.234C69.2183 15.248 67.5109 16.7885 67.5109 16.7885C67.5109 16.7885 67.9634 16.5545 68.7246 16.223C70.9257 15.3065 72.6743 15.053 73.3943 14.9945C73.5177 14.975 73.6206 14.9555 73.744 14.9555C74.9989 14.7995 76.4183 14.7605 77.8994 14.9165C79.8537 15.131 81.952 15.677 84.0914 16.7885C84.0914 16.7885 82.4663 15.326 78.9691 14.312L79.2571 14C79.2571 14 82.0754 13.9415 85.0377 16.0475C85.0377 16.0475 88 21.137 88 27.416C88 27.416 86.2514 30.2435 81.7051 30.38ZM70.0411 23.438C70.0411 22.2485 70.9669 21.2735 72.1394 21.2735C73.312 21.2735 74.2583 22.2485 74.2377 23.438C74.2377 24.6275 73.312 25.6025 72.1394 25.6025C70.9874 25.6025 70.0411 24.6275 70.0411 23.438ZM77.5497 23.438C77.5497 22.2485 78.4754 21.2735 79.648 21.2735C80.8206 21.2735 81.7463 22.2485 81.7463 23.438C81.7463 24.6275 80.8206 25.6025 79.648 25.6025C78.496 25.6025 77.5497 24.6275 77.5497 23.438Z" fill="white"/>
</svg>
