<svg width="25" height="17" viewBox="0 0 25 17" fill="none" xmlns="http://www.w3.org/2000/svg">
<path fill-rule="evenodd" clip-rule="evenodd" d="M17.7326 16.3802C17.7326 16.3802 16.992 15.5417 16.3749 14.8007C19.0697 14.0792 20.0983 12.4802 20.0983 12.4802C19.2549 13.0067 18.4526 13.3772 17.7326 13.6307C16.704 14.0402 15.7166 14.3132 14.7497 14.4692C12.7749 14.8202 10.9646 14.7227 9.42171 14.4497C8.24914 14.2352 7.24114 13.9232 6.39771 13.6112C5.92457 13.4357 5.41029 13.2212 4.896 12.9482C4.83429 12.9092 4.77257 12.8897 4.71085 12.8507C4.66971 12.8312 4.64915 12.8117 4.62858 12.7922C4.25829 12.5972 4.05257 12.4607 4.05257 12.4607C4.05257 12.4607 5.03999 14.0207 7.65257 14.7617C7.03542 15.5027 6.27428 16.3802 6.27428 16.3802C1.728 16.2437 0 13.4162 0 13.4162C0 7.13716 2.96229 2.04766 2.96229 2.04766C5.92457 -0.058337 8.74285 0.000162043 8.74285 0.000162043L8.94857 0.234163C5.24571 1.24816 3.53829 2.78866 3.53829 2.78866C3.53829 2.78866 3.99086 2.55466 4.75201 2.22316C6.95315 1.30666 8.70171 1.05316 9.42171 0.994661C9.54514 0.975161 9.648 0.95566 9.77143 0.95566C11.0263 0.79966 12.4457 0.760658 13.9269 0.916658C15.8811 1.13116 17.9794 1.67716 20.1189 2.78866C20.1189 2.78866 18.4937 1.32616 14.9966 0.312158L15.2846 0.000162043C15.2846 0.000162043 18.1029 -0.058337 21.0651 2.04766C21.0651 2.04766 24.0274 7.13716 24.0274 13.4162C24.0274 13.4162 22.2789 16.2437 17.7326 16.3802ZM6.06857 9.43817C6.06857 8.24867 6.99429 7.27366 8.16686 7.27366C9.33943 7.27366 10.2857 8.24867 10.2651 9.43817C10.2651 10.6277 9.33943 11.6027 8.16686 11.6027C7.01486 11.6027 6.06857 10.6277 6.06857 9.43817ZM13.5771 9.43817C13.5771 8.24867 14.5029 7.27366 15.6754 7.27366C16.848 7.27366 17.7737 8.24867 17.7737 9.43817C17.7737 10.6277 16.848 11.6027 15.6754 11.6027C14.5234 11.6027 13.5771 10.6277 13.5771 9.43817Z" fill="white"/>
</svg>
