<svg width="39" height="48" viewBox="0 0 39 48" fill="none" xmlns="http://www.w3.org/2000/svg">
<mask id="mask0_588_209" style="mask-type:alpha" maskUnits="userSpaceOnUse" x="0" y="0" width="39" height="48">
<path d="M0.545898 0.452148H38.659L37.2423 24.8276L35.6124 47.7813H0.545898V0.452148Z" fill="#D9D9D9"/>
</mask>
<g mask="url(#mask0_588_209)">
<path d="M1.20539 44.64C1.14539 44.88 1.20539 45 1.44539 45H3.18539C3.36539 45 3.42539 44.94 3.42539 44.82L9.66539 27.18C9.72539 27.06 9.78539 27 9.96539 27H23.7054C23.8254 27 23.9454 27.06 24.0054 27.18C24.4854 28.62 28.1454 39.42 30.0654 44.82C30.0654 44.94 30.1254 45 30.3054 45H35.9454C36.1254 45 36.2454 44.88 36.1854 44.64C34.7454 40.62 31.5654 31.44 28.5054 22.62L21.7854 3.18C21.7254 3.06 21.6054 3 21.4854 3H16.1454C15.9654 3 15.9054 3.06 15.9054 3.18L13.9854 8.64C12.1254 13.98 10.3254 18.9 8.64539 23.7L1.20539 44.64ZM10.9254 24.9C10.6854 24.9 10.6254 24.78 10.6854 24.54L16.6254 7.68C16.8054 7.44 16.9854 7.44 17.1654 7.68L22.9854 24.54C23.0454 24.78 22.9254 24.9 22.7454 24.9H10.9254ZM38.8174 13.2C38.8174 24.42 38.7574 38.76 38.7574 44.7C38.7574 44.88 38.8774 45 39.0574 45H44.3374C44.5174 45 44.5774 44.88 44.5774 44.7V24.42C44.5774 24.24 44.6374 24.18 44.8174 24.18H45.7174C51.1174 31.2 54.8974 35.58 58.4374 39.6C60.1774 41.7 61.5574 43.02 62.5174 43.92C65.5774 46.62 66.8374 46.56 68.6374 46.56H72.7774C72.9574 46.56 73.0774 46.44 73.0774 46.26V45.78C73.0774 45.6 72.9574 45.54 72.7774 45.54C70.4374 45.36 68.8774 44.46 66.2974 41.16L60.2974 33.18L53.6374 24.6C53.4574 24.42 53.5774 24.18 53.8174 24.18C61.0174 24 69.3574 22.32 69.3574 13.56C69.3574 4.74 60.2974 3 53.2774 3H39.0574C38.8774 3 38.8174 3.12 38.8174 3.3V13.2ZM44.5774 5.46C44.5774 5.28 44.6974 5.16 44.8774 5.16H52.1974C59.5774 5.16 63.2974 7.98 63.2974 13.56C63.2974 19.08 59.6974 22.02 52.1974 22.02H44.8774C44.6974 22.02 44.5774 21.9 44.5774 21.72V5.46ZM79.3015 6C73.0615 10.08 70.1215 16.74 70.1215 24C70.1215 36.72 79.9015 45.6 91.9015 45.6C98.3815 45.6 104.261 42.96 108.101 37.68C108.161 37.56 108.161 37.44 108.041 37.32L107.861 37.14C107.681 36.96 107.561 36.96 107.501 37.14C103.901 40.98 99.5215 42.54 95.2015 42.54C85.0615 42.54 76.1215 33.6 76.1215 21.3C76.1215 9.84 84.0415 4.32 91.4815 4.32C98.4415 4.32 102.941 6.48 105.761 12.24C105.821 12.36 105.881 12.42 106.061 12.36L106.601 12.12C106.781 12.06 106.841 11.94 106.781 11.76C104.141 6.24 99.2815 2.88 93.0415 2.46C88.2415 2.16 83.3815 3.36 79.3015 6ZM110.711 44.7C110.711 44.88 110.831 45 111.011 45H116.291C116.471 45 116.531 44.88 116.531 44.7V24.84C116.531 24.66 116.651 24.6 116.831 24.6H137.231C137.411 24.6 137.531 24.66 137.531 24.84V44.7C137.531 44.88 137.591 45 137.771 45H143.051C143.231 45 143.351 44.88 143.351 44.7V3.3C143.351 3.12 143.231 3 143.051 3H137.771C137.591 3 137.531 3.12 137.531 3.3V22.14C137.531 22.32 137.411 22.44 137.231 22.44H116.831C116.651 22.44 116.531 22.32 116.531 22.14V3.3C116.531 3.12 116.471 3 116.291 3H111.011C110.831 3 110.711 3.12 110.711 3.3V44.7ZM148.152 45H153.732C153.912 45 153.972 44.88 153.972 44.7V3.24C153.972 3.06 153.852 3 153.672 3H148.452C148.272 3 148.152 3.06 148.152 3.24V45ZM156.777 3C156.537 3 156.477 3.12 156.537 3.36L170.997 44.82C171.057 44.94 171.117 45 171.297 45H175.917C176.097 45 176.157 44.94 176.157 44.82L190.917 3.36C190.977 3.12 190.857 3 190.617 3H188.937C188.757 3 188.697 3.06 188.697 3.18C185.817 11.1 177.537 34.98 175.857 39.48C175.677 39.72 175.497 39.72 175.317 39.48L162.657 3.18C162.657 3.06 162.597 3 162.417 3H156.777ZM191.284 9.84C191.284 9.96 191.344 10.08 191.404 10.14C191.824 10.44 192.124 10.74 192.424 10.98C192.604 11.16 192.784 11.16 192.844 10.92C194.944 6.78 198.424 3.54 203.644 3.54L203.584 3.48C208.204 3.48 210.604 7.26 210.604 11.34C210.604 15.42 208.384 19.2 204.064 21.06C203.824 21.12 203.884 21.54 204.184 21.54C210.424 22.02 213.724 25.56 213.724 31.86C213.724 38.1 209.584 43.2 202.864 43.2C199.684 43.2 195.064 41.88 192.664 37.38C192.544 37.26 192.424 37.2 192.304 37.26L191.524 37.62C191.284 37.68 191.224 37.8 191.404 37.98C193.324 41.76 197.944 45.18 204.304 45.18C213.124 45.18 219.364 38.64 219.364 31.44C219.364 26.64 216.304 21.78 209.404 20.16C209.104 20.1 209.104 19.74 209.344 19.68C213.664 17.7 215.644 14.46 215.644 11.28C215.644 6.54 211.324 1.98 203.824 1.98C197.704 1.98 193.024 5.52 191.284 9.84ZM220.17 9.84C220.17 9.96 220.23 10.08 220.29 10.14C220.71 10.44 221.01 10.74 221.31 10.98C221.49 11.16 221.67 11.16 221.73 10.92C223.83 6.78 227.31 3.54 232.53 3.54L232.47 3.48C237.09 3.48 239.49 7.26 239.49 11.34C239.49 15.42 237.27 19.2 232.95 21.06C232.71 21.12 232.77 21.54 233.07 21.54C239.31 22.02 242.61 25.56 242.61 31.86C242.61 38.1 238.47 43.2 231.75 43.2C228.57 43.2 223.95 41.88 221.55 37.38C221.43 37.26 221.31 37.2 221.19 37.26L220.41 37.62C220.17 37.68 220.11 37.8 220.29 37.98C222.21 41.76 226.83 45.18 233.19 45.18C242.01 45.18 248.25 38.64 248.25 31.44C248.25 26.64 245.19 21.78 238.29 20.16C237.99 20.1 237.99 19.74 238.23 19.68C242.55 17.7 244.53 14.46 244.53 11.28C244.53 6.54 240.21 1.98 232.71 1.98C226.59 1.98 221.91 5.52 220.17 9.84ZM249.057 9.84C249.057 9.96 249.117 10.08 249.177 10.14C249.597 10.44 249.897 10.74 250.197 10.98C250.377 11.16 250.557 11.16 250.617 10.92C252.717 6.78 256.197 3.54 261.417 3.54L261.357 3.48C265.977 3.48 268.377 7.26 268.377 11.34C268.377 15.42 266.157 19.2 261.837 21.06C261.597 21.12 261.657 21.54 261.957 21.54C268.197 22.02 271.497 25.56 271.497 31.86C271.497 38.1 267.357 43.2 260.637 43.2C257.457 43.2 252.837 41.88 250.437 37.38C250.317 37.26 250.197 37.2 250.077 37.26L249.297 37.62C249.057 37.68 248.997 37.8 249.177 37.98C251.097 41.76 255.717 45.18 262.077 45.18C270.897 45.18 277.137 38.64 277.137 31.44C277.137 26.64 274.077 21.78 267.177 20.16C266.877 20.1 266.877 19.74 267.117 19.68C271.437 17.7 273.417 14.46 273.417 11.28C273.417 6.54 269.097 1.98 261.597 1.98C255.477 1.98 250.797 5.52 249.057 9.84Z" fill="white"/>
</g>
</svg>
